# xmcd
#
# Track frame offsets:
#	150
#	14097
#	27635
#	40051
#	53231
#	66223
#	80160
#	94809
#	109754
#	122817
#	137910
#	151489
#	164640
#	177422
#	189709
#	201091
#	214403
#	226995
#	240032
#	251957
#	264056
#	277751
#
# Disc length: 3864 seconds
#
# Revision: 1
# Processed by: cddbd v1.5.1PL2 Copyright (c) Steve Scherf et al.
# Submitted via: audiograbber 1.83.01
#
DISCID=430f1616
DTITLE=Ruth Brown - 1951-1953
DYEAR=1900
DGENRE=
TTITLE0=Don't Cry
TTITLE1=The Shrine Of St. Cecilia
TTITLE2=It's all For You
TTITLE3=Without My Love
TTITLE4=Shine On
TTITLE5=Be Anything
TTITLE6=5-10-15 Hours
TTITLE7=Have A Good Time
TTITLE8=Daddy Daddy
TTITLE9=Good For Nothin' Joe
TTITLE10=Three Letters
TTITLE11=Mama, He Treats Your Daughter Mean
TTITLE12=Mend Your Ways
TTITLE13=I Would If I Could
TTITLE14=Wild Wild Young Men
TTITLE15=The Tears Keep Tumbling Down
TTITLE16=Ever Since My Baby¡'s Been Gone
TTITLE17=If I Had Any Sense
TTITLE18=If You Don't Want Me
TTITLE19=Too Many Men
TTITLE20=Love Contest
TTITLE21=Hello Little Boy
EXTD=
EXTT0=
EXTT1=
EXTT2=
EXTT3=
EXTT4=
EXTT5=
EXTT6=
EXTT7=
EXTT8=
EXTT9=
EXTT10=
EXTT11=
EXTT12=
EXTT13=
EXTT14=
EXTT15=
EXTT16=
EXTT17=
EXTT18=
EXTT19=
EXTT20=
EXTT21=
PLAYORDER=
